<?xml version="1.0" encoding="UTF-8"?>
<svg version="1.1" id="svg1" xml:space="preserve" xmlns="http://www.w3.org/2000/svg" width="180" height="30" viewBox="0 0 47.624999 7.9375"><defs id="defs1"/><g id="layer1"><rect id="rect1" x="0.1289961" y="0.1289961" style="fill: rgb(16, 131, 254); fill-opacity: 1; stroke: rgb(16, 131, 254); stroke-width: 0.257991; stroke-linejoin: round; stroke-dasharray: none; stroke-opacity: 1;" width="47.367008" height="7.6795087" ry="2.3038526100000003"/><path d="&#10;        m 5.4155436, 2.4370388&#10;        c  0.485341, 0.4138246  1.007381, 1.2528887  1.199047, 1.7031792&#10;        c  0.191682,-0.4502574  0.713693,-1.2893629  1.199048,-1.7031792&#10;        c  0.350197,-0.2985994  0.917607,-0.5296386  0.917607, 0.2055404&#10;        c  0       , 0.1468253 -0.07412 , 1.2334081 -0.117592, 1.4098106&#10;        c -0.151106, 0.6132971 -0.701736, 0.7697217 -1.19153 , 0.6750463&#10;        c  0.85615 , 0.1654933  1.073947, 0.7136675  0.60359 , 1.2618413&#10;        c -0.893301, 1.04109   -1.283933,-0.2612131 -1.384073,-0.5949105&#10;        c -0.01835 ,-0.061175  -0.02694 ,-0.089793  -0.02706 ,-0.065458&#10;        c -1.27e-4 ,-0.024336  -0.0087  , 0.00428   -0.02706 , 0.065459&#10;        c -0.100096, 0.3336966 -0.490721, 1.6360325 -1.384073, 0.5949095&#10;        c -0.470364,-0.5481736 -0.252575,-1.0963809  0.60359 ,-1.2618411&#10;        c -0.489808, 0.094675  -1.040445,-0.06175   -1.19153 ,-0.6750463&#10;        c -0.04347 ,-0.176419  -0.117591,-1.263002  -0.117591,-1.4098106&#10;        c  0       ,-0.735179   0.567423,-0.5041398  0.917606,-0.2055404&#10;        z&#10;      " id="path1" fill="#FFFFFF" transform="translate(0, -0.28495538224182093) translate(0, 0) scale(1) " style="display: inline; fill: rgb(255, 255, 255); fill-opacity: 1; stroke-width: 0.00777847;"/><path d="M13.01 4.70L12.27 4.70L12.27 2.37L12.96 2.37Q13.20 2.37 13.38 2.43Q13.56 2.49 13.66 2.61Q13.76 2.74 13.76 2.94L13.76 2.94Q13.76 3.06 13.72 3.16Q13.68 3.26 13.61 3.34Q13.53 3.41 13.42 3.45L13.42 3.45L13.42 3.46Q13.63 3.50 13.76 3.64Q13.89 3.78 13.89 4.02L13.89 4.02Q13.89 4.25 13.78 4.40Q13.67 4.55 13.47 4.62Q13.27 4.70 13.01 4.70L13.01 4.70ZM12.56 2.61L12.56 3.36L12.91 3.36Q13.21 3.36 13.34 3.26Q13.47 3.16 13.47 2.98L13.47 2.98Q13.47 2.77 13.33 2.69Q13.20 2.61 12.92 2.61L12.92 2.61L12.56 2.61ZM12.56 3.59L12.56 4.47L12.97 4.47Q13.27 4.47 13.44 4.35Q13.61 4.24 13.61 4.01L13.61 4.01Q13.61 3.79 13.44 3.69Q13.28 3.59 12.97 3.59L12.97 3.59L12.56 3.59ZM14.63 4.74L14.63 4.74Q14.53 4.74 14.46 4.70Q14.39 4.65 14.36 4.57Q14.33 4.48 14.33 4.36L14.33 4.36L14.33 2.17L14.62 2.17L14.62 4.38Q14.62 4.44 14.65 4.47Q14.67 4.50 14.70 4.50L14.70 4.50Q14.71 4.50 14.73 4.50Q14.74 4.50 14.76 4.49L14.76 4.49L14.80 4.72Q14.77 4.73 14.73 4.73Q14.69 4.74 14.63 4.74ZM15.74 4.74L15.74 4.74Q15.46 4.74 15.33 4.57Q15.21 4.40 15.21 4.07L15.21 4.07L15.21 2.98L15.50 2.98L15.50 4.03Q15.50 4.27 15.57 4.38Q15.65 4.49 15.82 4.49L15.82 4.49Q15.95 4.49 16.06 4.42Q16.16 4.35 16.29 4.20L16.29 4.20L16.29 2.98L16.58 2.98L16.58 4.70L16.34 4.70L16.31 4.43L16.30 4.43Q16.18 4.57 16.05 4.66Q15.91 4.74 15.74 4.74ZM17.86 4.74L17.86 4.74Q17.62 4.74 17.44 4.63Q17.25 4.53 17.14 4.32Q17.03 4.12 17.03 3.84L17.03 3.84Q17.03 3.63 17.09 3.46Q17.16 3.29 17.27 3.18Q17.38 3.06 17.52 2.99Q17.66 2.93 17.80 2.93L17.80 2.93Q18.02 2.93 18.18 3.03Q18.33 3.13 18.41 3.31Q18.49 3.49 18.49 3.74L18.49 3.74Q18.49 3.79 18.49 3.83Q18.49 3.87 18.48 3.91L18.48 3.91L17.32 3.91Q17.33 4.09 17.40 4.23Q17.48 4.36 17.60 4.44Q17.72 4.51 17.89 4.51L17.89 4.51Q18.02 4.51 18.12 4.47Q18.22 4.44 18.32 4.37L18.32 4.37L18.42 4.57Q18.31 4.64 18.17 4.69Q18.03 4.74 17.86 4.74ZM17.31 3.70L17.31 3.70L18.24 3.70Q18.24 3.44 18.12 3.30Q18.01 3.16 17.81 3.16L17.81 3.16Q17.69 3.16 17.58 3.23Q17.48 3.29 17.40 3.41Q17.33 3.53 17.31 3.70ZM19.37 4.74L19.37 4.74Q19.19 4.74 19.02 4.67Q18.85 4.61 18.73 4.50L18.73 4.50L18.87 4.31Q18.98 4.40 19.10 4.46Q19.22 4.52 19.38 4.52L19.38 4.52Q19.55 4.52 19.63 4.44Q19.72 4.36 19.72 4.25L19.72 4.25Q19.72 4.16 19.66 4.10Q19.60 4.04 19.51 4.00Q19.42 3.95 19.32 3.92L19.32 3.92Q19.20 3.87 19.09 3.81Q18.97 3.75 18.90 3.66Q18.82 3.57 18.82 3.42L18.82 3.42Q18.82 3.28 18.89 3.17Q18.96 3.06 19.09 3.00Q19.23 2.93 19.42 2.93L19.42 2.93Q19.57 2.93 19.71 2.99Q19.85 3.05 19.95 3.13L19.95 3.13L19.81 3.31Q19.72 3.25 19.63 3.20Q19.53 3.16 19.42 3.16L19.42 3.16Q19.25 3.16 19.18 3.23Q19.10 3.31 19.10 3.41L19.10 3.41Q19.10 3.49 19.15 3.54Q19.20 3.60 19.29 3.63Q19.37 3.67 19.47 3.71L19.47 3.71Q19.56 3.74 19.66 3.78Q19.75 3.82 19.83 3.88Q19.90 3.94 19.95 4.02Q19.99 4.11 19.99 4.23L19.99 4.23Q19.99 4.37 19.92 4.49Q19.85 4.61 19.71 4.67Q19.57 4.74 19.37 4.74ZM20.69 4.70L20.40 4.70L20.40 2.17L20.69 2.17L20.69 3.88L20.70 3.88L21.43 2.98L21.76 2.98L21.18 3.67L21.83 4.70L21.52 4.70L21.01 3.87L20.69 4.25L20.69 4.70ZM22.18 5.44L22.18 5.44Q22.12 5.44 22.07 5.43Q22.02 5.42 21.98 5.41L21.98 5.41L22.04 5.18Q22.06 5.19 22.10 5.20Q22.13 5.21 22.17 5.21L22.17 5.21Q22.32 5.21 22.41 5.10Q22.50 4.99 22.56 4.83L22.56 4.83L22.60 4.70L21.90 2.98L22.21 2.98L22.56 3.93Q22.60 4.05 22.64 4.17Q22.68 4.30 22.73 4.42L22.73 4.42L22.74 4.42Q22.78 4.30 22.81 4.18Q22.85 4.05 22.88 3.93L22.88 3.93L23.19 2.98L23.48 2.98L22.83 4.85Q22.77 5.02 22.68 5.15Q22.60 5.28 22.48 5.36Q22.36 5.44 22.18 5.44ZM24.51 2.89L24.48 2.61Q24.57 2.61 24.64 2.60Q24.72 2.60 24.76 2.60L24.76 2.60Q24.84 2.59 24.98 2.57Q25.13 2.56 25.31 2.54Q25.50 2.52 25.72 2.50Q25.93 2.48 26.15 2.47L26.15 2.47Q26.33 2.45 26.48 2.44Q26.64 2.43 26.77 2.42Q26.91 2.41 27.01 2.41L27.01 2.41L27.01 2.66Q26.92 2.66 26.81 2.67Q26.69 2.67 26.58 2.68Q26.47 2.69 26.39 2.71L26.39 2.71Q26.22 2.77 26.08 2.88Q25.95 2.99 25.85 3.13Q25.76 3.27 25.71 3.42Q25.66 3.58 25.66 3.72L25.66 3.72Q25.66 3.90 25.72 4.04Q25.79 4.18 25.90 4.28Q26.01 4.37 26.15 4.43Q26.29 4.49 26.44 4.52Q26.60 4.55 26.76 4.55L26.76 4.55L26.66 4.82Q26.49 4.81 26.31 4.77Q26.13 4.73 25.97 4.65Q25.81 4.56 25.68 4.44Q25.55 4.32 25.48 4.15Q25.41 3.99 25.41 3.77L25.41 3.77Q25.41 3.53 25.49 3.31Q25.58 3.10 25.72 2.94Q25.85 2.79 26.00 2.70L26.00 2.70Q25.90 2.71 25.75 2.73Q25.60 2.74 25.43 2.76Q25.25 2.78 25.08 2.80Q24.91 2.82 24.76 2.84Q24.61 2.87 24.51 2.89L24.51 2.89ZM26.39 3.12L26.55 3.05Q26.59 3.10 26.64 3.18Q26.69 3.26 26.73 3.34Q26.78 3.42 26.81 3.49L26.81 3.49L26.65 3.57Q26.60 3.45 26.53 3.34Q26.46 3.22 26.39 3.12L26.39 3.12ZM26.74 2.99L26.90 2.92Q26.94 2.97 26.99 3.05Q27.04 3.12 27.09 3.20Q27.14 3.28 27.18 3.36L27.18 3.36L27.01 3.44Q26.95 3.32 26.88 3.21Q26.82 3.09 26.74 2.99L26.74 2.99ZM29.69 2.49L29.69 3.24Q29.69 3.56 29.65 3.81Q29.61 4.05 29.51 4.24Q29.41 4.43 29.23 4.58Q29.05 4.73 28.78 4.85L28.78 4.85L28.57 4.65Q28.79 4.56 28.95 4.46Q29.11 4.36 29.22 4.21Q29.33 4.05 29.38 3.82Q29.44 3.60 29.44 3.26L29.44 3.26L29.44 2.49Q29.44 2.40 29.43 2.32Q29.42 2.25 29.42 2.23L29.42 2.23L29.71 2.23Q29.70 2.25 29.70 2.32Q29.69 2.40 29.69 2.49L29.69 2.49ZM28.26 2.25L28.55 2.25Q28.54 2.27 28.54 2.34Q28.53 2.40 28.53 2.48L28.53 2.48L28.53 3.64Q28.53 3.70 28.53 3.76Q28.54 3.82 28.54 3.87Q28.54 3.92 28.54 3.93L28.54 3.93L28.26 3.93Q28.26 3.92 28.27 3.87Q28.27 3.83 28.27 3.77Q28.28 3.70 28.28 3.64L28.28 3.64L28.28 2.48Q28.28 2.43 28.27 2.37Q28.27 2.30 28.26 2.25L28.26 2.25ZM27.62 3.14L27.62 2.87Q27.63 2.87 27.68 2.87Q27.73 2.88 27.80 2.88Q27.87 2.89 27.93 2.89L27.93 2.89L30.04 2.89Q30.14 2.89 30.22 2.88Q30.30 2.88 30.33 2.87L30.33 2.87L30.33 3.14Q30.30 3.14 30.22 3.14Q30.14 3.13 30.04 3.13L30.04 3.13L27.93 3.13Q27.87 3.13 27.80 3.13Q27.73 3.14 27.68 3.14Q27.64 3.14 27.62 3.14L27.62 3.14ZM30.98 3.80L30.85 3.55Q31.26 3.44 31.62 3.28Q31.98 3.13 32.24 2.96L32.24 2.96Q32.40 2.86 32.56 2.73Q32.72 2.61 32.86 2.48Q33.00 2.34 33.11 2.21L33.11 2.21L33.32 2.41Q33.19 2.55 33.03 2.69Q32.87 2.83 32.70 2.95Q32.53 3.08 32.34 3.20L32.34 3.20Q32.17 3.30 31.95 3.41Q31.73 3.52 31.48 3.62Q31.23 3.72 30.98 3.80L30.98 3.80ZM32.19 4.46L32.19 3.09L32.46 3.01L32.46 4.46Q32.46 4.52 32.46 4.59Q32.46 4.65 32.47 4.71Q32.47 4.77 32.48 4.80L32.48 4.80L32.17 4.80Q32.17 4.77 32.18 4.71Q32.18 4.65 32.19 4.59Q32.19 4.52 32.19 4.46L32.19 4.46ZM34.29 2.57L34.47 2.37Q34.56 2.43 34.67 2.51Q34.78 2.60 34.90 2.69Q35.01 2.79 35.12 2.88Q35.22 2.96 35.28 3.03L35.28 3.03L35.08 3.23Q35.02 3.17 34.93 3.08Q34.83 2.99 34.72 2.90Q34.60 2.80 34.49 2.71Q34.38 2.62 34.29 2.57L34.29 2.57ZM34.37 4.76L34.20 4.50Q34.48 4.46 34.71 4.39Q34.94 4.31 35.13 4.22Q35.32 4.13 35.47 4.04L35.47 4.04Q35.72 3.88 35.92 3.69Q36.13 3.49 36.28 3.28Q36.44 3.06 36.53 2.87L36.53 2.87L36.68 3.14Q36.58 3.34 36.42 3.54Q36.26 3.74 36.06 3.93Q35.86 4.12 35.62 4.27L35.62 4.27Q35.46 4.37 35.27 4.46Q35.08 4.56 34.86 4.64Q34.63 4.71 34.37 4.76L34.37 4.76ZM37.33 3.80L37.20 3.55Q37.61 3.44 37.97 3.28Q38.33 3.13 38.59 2.96L38.59 2.96Q38.75 2.86 38.91 2.73Q39.07 2.61 39.21 2.48Q39.35 2.34 39.46 2.21L39.46 2.21L39.67 2.41Q39.54 2.55 39.38 2.69Q39.22 2.83 39.05 2.95Q38.88 3.08 38.69 3.20L38.69 3.20Q38.52 3.30 38.30 3.41Q38.08 3.52 37.83 3.62Q37.58 3.72 37.33 3.80L37.33 3.80ZM38.54 4.46L38.54 3.09L38.81 3.01L38.81 4.46Q38.81 4.52 38.81 4.59Q38.81 4.65 38.82 4.71Q38.82 4.77 38.83 4.80L38.83 4.80L38.52 4.80Q38.52 4.77 38.53 4.71Q38.53 4.65 38.54 4.59Q38.54 4.52 38.54 4.46L38.54 4.46ZM40.64 2.57L40.82 2.37Q40.91 2.43 41.02 2.51Q41.13 2.60 41.25 2.69Q41.36 2.79 41.47 2.88Q41.57 2.96 41.63 3.03L41.63 3.03L41.43 3.23Q41.37 3.17 41.28 3.08Q41.18 2.99 41.07 2.90Q40.95 2.80 40.84 2.71Q40.73 2.62 40.64 2.57L40.64 2.57ZM40.72 4.76L40.55 4.50Q40.83 4.46 41.06 4.39Q41.29 4.31 41.48 4.22Q41.67 4.13 41.82 4.04L41.82 4.04Q42.07 3.88 42.27 3.69Q42.48 3.49 42.63 3.28Q42.79 3.06 42.88 2.87L42.88 2.87L43.03 3.14Q42.93 3.34 42.77 3.54Q42.61 3.74 42.41 3.93Q42.21 4.12 41.97 4.27L41.97 4.27Q41.81 4.37 41.62 4.46Q41.43 4.56 41.21 4.64Q40.98 4.71 40.72 4.76L40.72 4.76Z" fill="rgb(255, 255, 255)" stroke="rgb(255, 255, 255)" stroke-width="0.3175002px" stroke-linejoin="round" stroke-linecap="round"/></g></svg>