<?xml version="1.0" encoding="UTF-8"?>
<svg version="1.1" id="svg1" xml:space="preserve" xmlns="http://www.w3.org/2000/svg" width="180" height="30" viewBox="0 0 47.624999 7.9375"><defs id="defs1"/><g id="layer1"><rect id="rect1" x="0.1289961" y="0.1289961" style="fill: rgb(16, 131, 254); fill-opacity: 1; stroke: rgb(16, 131, 254); stroke-width: 0.257991; stroke-linejoin: round; stroke-dasharray: none; stroke-opacity: 1;" width="47.367008" height="7.6795087" ry="2.3038526100000003"/><path d="&#10;        m 5.4155436, 2.4370388&#10;        c  0.485341, 0.4138246  1.007381, 1.2528887  1.199047, 1.7031792&#10;        c  0.191682,-0.4502574  0.713693,-1.2893629  1.199048,-1.7031792&#10;        c  0.350197,-0.2985994  0.917607,-0.5296386  0.917607, 0.2055404&#10;        c  0       , 0.1468253 -0.07412 , 1.2334081 -0.117592, 1.4098106&#10;        c -0.151106, 0.6132971 -0.701736, 0.7697217 -1.19153 , 0.6750463&#10;        c  0.85615 , 0.1654933  1.073947, 0.7136675  0.60359 , 1.2618413&#10;        c -0.893301, 1.04109   -1.283933,-0.2612131 -1.384073,-0.5949105&#10;        c -0.01835 ,-0.061175  -0.02694 ,-0.089793  -0.02706 ,-0.065458&#10;        c -1.27e-4 ,-0.024336  -0.0087  , 0.00428   -0.02706 , 0.065459&#10;        c -0.100096, 0.3336966 -0.490721, 1.6360325 -1.384073, 0.5949095&#10;        c -0.470364,-0.5481736 -0.252575,-1.0963809  0.60359 ,-1.2618411&#10;        c -0.489808, 0.094675  -1.040445,-0.06175   -1.19153 ,-0.6750463&#10;        c -0.04347 ,-0.176419  -0.117591,-1.263002  -0.117591,-1.4098106&#10;        c  0       ,-0.735179   0.567423,-0.5041398  0.917606,-0.2055404&#10;        z&#10;      " id="path1" fill="#FFFFFF" transform="translate(0, -0.28495538224182093) translate(0, 0) scale(1) " style="display: inline; fill: rgb(255, 255, 255); fill-opacity: 1; stroke-width: 0.00777847;"/><path d="M13.54 4.13L13.54 4.13Q13.54 4.33 13.45 4.47Q13.35 4.61 13.17 4.69Q12.98 4.77 12.74 4.77L12.74 4.77Q12.61 4.77 12.49 4.75Q12.38 4.74 12.28 4.72Q12.19 4.69 12.11 4.66L12.11 4.66L12.11 4.38Q12.23 4.44 12.40 4.48Q12.57 4.52 12.75 4.52L12.75 4.52Q12.92 4.52 13.03 4.47Q13.14 4.43 13.20 4.35Q13.26 4.26 13.26 4.15L13.26 4.15Q13.26 4.04 13.21 3.97Q13.16 3.89 13.05 3.82Q12.93 3.76 12.73 3.69L12.73 3.69Q12.58 3.63 12.47 3.57Q12.36 3.51 12.29 3.43Q12.21 3.35 12.18 3.25Q12.14 3.15 12.14 3.01L12.14 3.01Q12.14 2.83 12.23 2.70Q12.33 2.58 12.49 2.51Q12.65 2.44 12.87 2.44L12.87 2.44Q13.05 2.44 13.21 2.47Q13.36 2.51 13.49 2.56L13.49 2.56L13.40 2.81Q13.28 2.76 13.15 2.72Q13.01 2.69 12.86 2.69L12.86 2.69Q12.72 2.69 12.62 2.73Q12.53 2.77 12.48 2.84Q12.43 2.92 12.43 3.02L12.43 3.02Q12.43 3.13 12.48 3.21Q12.53 3.28 12.63 3.34Q12.74 3.40 12.93 3.47L12.93 3.47Q13.13 3.55 13.26 3.63Q13.40 3.71 13.47 3.83Q13.54 3.95 13.54 4.13ZM13.96 3.03L14.24 3.03L14.24 4.73L13.96 4.73L13.96 3.03ZM14.11 2.39L14.11 2.39Q14.17 2.39 14.22 2.44Q14.27 2.48 14.27 2.57L14.27 2.57Q14.27 2.66 14.22 2.71Q14.17 2.75 14.11 2.75L14.11 2.75Q14.04 2.75 13.99 2.71Q13.94 2.66 13.94 2.57L13.94 2.57Q13.94 2.48 13.99 2.44Q14.04 2.39 14.11 2.39ZM15.39 3.00L15.39 3.00Q15.55 3.00 15.69 3.06Q15.82 3.13 15.92 3.26L15.92 3.26L15.94 3.26L15.97 3.03L16.20 3.03L16.20 4.76Q16.20 5.00 16.11 5.17Q16.03 5.33 15.86 5.41Q15.69 5.50 15.43 5.50L15.43 5.50Q15.25 5.50 15.10 5.47Q14.94 5.44 14.82 5.39L14.82 5.39L14.82 5.13Q14.94 5.19 15.10 5.23Q15.27 5.26 15.45 5.26L15.45 5.26Q15.67 5.26 15.79 5.14Q15.92 5.01 15.92 4.78L15.92 4.78L15.92 4.72Q15.92 4.68 15.92 4.61Q15.93 4.54 15.93 4.51L15.93 4.51L15.92 4.51Q15.83 4.64 15.70 4.70Q15.56 4.77 15.39 4.77L15.39 4.77Q15.06 4.77 14.87 4.53Q14.69 4.30 14.69 3.89L14.69 3.89Q14.69 3.48 14.87 3.24Q15.06 3.00 15.39 3.00ZM15.42 3.24L15.42 3.24Q15.28 3.24 15.18 3.31Q15.08 3.39 15.03 3.53Q14.98 3.68 14.98 3.89L14.98 3.89Q14.98 4.20 15.09 4.37Q15.21 4.54 15.43 4.54L15.43 4.54Q15.56 4.54 15.65 4.50Q15.75 4.47 15.81 4.40Q15.87 4.33 15.89 4.22Q15.92 4.11 15.92 3.95L15.92 3.95L15.92 3.89Q15.92 3.65 15.87 3.51Q15.82 3.37 15.71 3.30Q15.60 3.24 15.42 3.24ZM17.55 3.00L17.55 3.00Q17.86 3.00 18.02 3.15Q18.17 3.30 18.17 3.63L18.17 3.63L18.17 4.73L17.89 4.73L17.89 3.65Q17.89 3.44 17.80 3.34Q17.71 3.24 17.51 3.24L17.51 3.24Q17.23 3.24 17.12 3.39Q17.02 3.55 17.02 3.85L17.02 3.85L17.02 4.73L16.74 4.73L16.74 3.03L16.96 3.03L17.00 3.26L17.02 3.26Q17.08 3.18 17.16 3.12Q17.24 3.06 17.35 3.03Q17.45 3.00 17.55 3.00ZM19.52 3.03L19.80 3.03L19.80 4.73L19.52 4.73L19.52 3.03ZM19.67 2.39L19.67 2.39Q19.73 2.39 19.78 2.44Q19.83 2.48 19.83 2.57L19.83 2.57Q19.83 2.66 19.78 2.71Q19.73 2.75 19.67 2.75L19.67 2.75Q19.60 2.75 19.55 2.71Q19.50 2.66 19.50 2.57L19.50 2.57Q19.50 2.48 19.55 2.44Q19.60 2.39 19.67 2.39ZM21.16 3.00L21.16 3.00Q21.47 3.00 21.62 3.15Q21.78 3.30 21.78 3.63L21.78 3.63L21.78 4.73L21.50 4.73L21.50 3.65Q21.50 3.44 21.41 3.34Q21.32 3.24 21.12 3.24L21.12 3.24Q20.84 3.24 20.73 3.39Q20.62 3.55 20.62 3.85L20.62 3.85L20.62 4.73L20.34 4.73L20.34 3.03L20.57 3.03L20.61 3.26L20.63 3.26Q20.68 3.18 20.77 3.12Q20.85 3.06 20.95 3.03Q21.05 3.00 21.16 3.00ZM24.52 4.73L24.23 3.77Q24.21 3.71 24.19 3.64Q24.17 3.58 24.16 3.52Q24.14 3.46 24.13 3.41Q24.12 3.36 24.11 3.32L24.11 3.32L24.10 3.32Q24.09 3.36 24.08 3.41Q24.07 3.46 24.06 3.52Q24.04 3.58 24.02 3.64Q24.01 3.71 23.98 3.78L23.98 3.78L23.68 4.73L23.36 4.73L22.90 3.03L23.18 3.03L23.42 3.94Q23.44 4.03 23.47 4.12Q23.49 4.22 23.51 4.30Q23.52 4.38 23.53 4.45L23.53 4.45L23.54 4.45Q23.55 4.41 23.57 4.35Q23.58 4.29 23.59 4.23Q23.61 4.17 23.62 4.10Q23.64 4.04 23.66 3.99L23.66 3.99L23.96 3.03L24.26 3.03L24.56 3.99Q24.58 4.06 24.60 4.14Q24.63 4.23 24.64 4.30Q24.66 4.38 24.67 4.44L24.67 4.44L24.68 4.44Q24.69 4.39 24.71 4.31Q24.72 4.23 24.75 4.13Q24.77 4.03 24.80 3.94L24.80 3.94L25.04 3.03L25.32 3.03L24.85 4.73L24.52 4.73ZM25.63 3.03L25.91 3.03L25.91 4.73L25.63 4.73L25.63 3.03ZM25.77 2.39L25.77 2.39Q25.83 2.39 25.88 2.44Q25.93 2.48 25.93 2.57L25.93 2.57Q25.93 2.66 25.88 2.71Q25.83 2.75 25.77 2.75L25.77 2.75Q25.70 2.75 25.65 2.71Q25.60 2.66 25.60 2.57L25.60 2.57Q25.60 2.48 25.65 2.44Q25.70 2.39 25.77 2.39ZM27.01 4.54L27.01 4.54Q27.08 4.54 27.14 4.53Q27.21 4.51 27.25 4.50L27.25 4.50L27.25 4.72Q27.21 4.74 27.12 4.75Q27.04 4.77 26.97 4.77L26.97 4.77Q26.83 4.77 26.72 4.72Q26.61 4.67 26.54 4.56Q26.47 4.45 26.47 4.24L26.47 4.24L26.47 3.25L26.23 3.25L26.23 3.11L26.47 3.00L26.58 2.64L26.75 2.64L26.75 3.03L27.24 3.03L27.24 3.25L26.75 3.25L26.75 4.23Q26.75 4.39 26.82 4.46Q26.90 4.54 27.01 4.54ZM27.87 2.32L27.87 3.03Q27.87 3.09 27.87 3.15Q27.86 3.22 27.85 3.27L27.85 3.27L27.87 3.27Q27.93 3.18 28.01 3.12Q28.09 3.06 28.19 3.03Q28.30 3.00 28.40 3.00L28.40 3.00Q28.61 3.00 28.75 3.07Q28.89 3.13 28.96 3.27Q29.03 3.41 29.03 3.63L29.03 3.63L29.03 4.73L28.75 4.73L28.75 3.65Q28.75 3.44 28.66 3.34Q28.57 3.24 28.37 3.24L28.37 3.24Q28.18 3.24 28.07 3.31Q27.96 3.38 27.92 3.52Q27.87 3.65 27.87 3.85L27.87 3.85L27.87 4.73L27.59 4.73L27.59 2.32L27.87 2.32ZM30.42 2.47L31.06 2.47Q31.49 2.47 31.71 2.59Q31.92 2.72 31.92 3.03L31.92 3.03Q31.92 3.16 31.88 3.27Q31.83 3.37 31.73 3.44Q31.63 3.51 31.49 3.53L31.49 3.53L31.49 3.55Q31.64 3.57 31.75 3.63Q31.87 3.69 31.93 3.80Q32.00 3.91 32.00 4.09L32.00 4.09Q32.00 4.30 31.91 4.44Q31.81 4.58 31.63 4.66Q31.46 4.73 31.21 4.73L31.21 4.73L30.42 4.73L30.42 2.47ZM30.70 3.43L31.12 3.43Q31.41 3.43 31.52 3.34Q31.63 3.24 31.63 3.06L31.63 3.06Q31.63 2.87 31.50 2.79Q31.37 2.71 31.08 2.71L31.08 2.71L30.70 2.71L30.70 3.43ZM31.14 3.67L30.70 3.67L30.70 4.49L31.16 4.49Q31.46 4.49 31.58 4.38Q31.70 4.26 31.70 4.07L31.70 4.07Q31.70 3.95 31.64 3.86Q31.59 3.77 31.47 3.72Q31.35 3.67 31.14 3.67L31.14 3.67ZM32.72 2.32L32.72 4.73L32.44 4.73L32.44 2.32L32.72 2.32ZM34.40 3.03L34.68 3.03L34.68 4.73L34.46 4.73L34.41 4.51L34.40 4.51Q34.35 4.60 34.26 4.65Q34.18 4.71 34.07 4.74Q33.97 4.77 33.86 4.77L33.86 4.77Q33.66 4.77 33.52 4.70Q33.38 4.64 33.31 4.50Q33.24 4.36 33.24 4.15L33.24 4.15L33.24 3.03L33.53 3.03L33.53 4.13Q33.53 4.33 33.62 4.43Q33.71 4.53 33.90 4.53L33.90 4.53Q34.09 4.53 34.20 4.46Q34.31 4.39 34.36 4.25Q34.40 4.11 34.40 3.92L34.40 3.92L34.40 3.03ZM35.88 3.00L35.88 3.00Q36.10 3.00 36.26 3.10Q36.41 3.19 36.50 3.36Q36.58 3.54 36.58 3.77L36.58 3.77L36.58 3.94L35.42 3.94Q35.42 4.23 35.57 4.38Q35.71 4.53 35.96 4.53L35.96 4.53Q36.12 4.53 36.25 4.50Q36.37 4.47 36.51 4.41L36.51 4.41L36.51 4.65Q36.38 4.71 36.25 4.74Q36.12 4.77 35.95 4.77L35.95 4.77Q35.71 4.77 35.52 4.67Q35.33 4.57 35.23 4.37Q35.13 4.18 35.13 3.90L35.13 3.90Q35.13 3.62 35.22 3.42Q35.32 3.22 35.49 3.11Q35.66 3.00 35.88 3.00ZM35.88 3.23L35.88 3.23Q35.68 3.23 35.56 3.36Q35.45 3.49 35.42 3.71L35.42 3.71L36.29 3.71Q36.29 3.57 36.25 3.46Q36.20 3.35 36.11 3.29Q36.02 3.23 35.88 3.23ZM38.12 4.26L38.12 4.26Q38.12 4.43 38.04 4.54Q37.96 4.65 37.81 4.71Q37.65 4.77 37.44 4.77L37.44 4.77Q37.27 4.77 37.14 4.74Q37.01 4.71 36.91 4.66L36.91 4.66L36.91 4.40Q37.01 4.45 37.16 4.50Q37.30 4.54 37.45 4.54L37.45 4.54Q37.66 4.54 37.76 4.47Q37.85 4.40 37.85 4.29L37.85 4.29Q37.85 4.23 37.82 4.18Q37.78 4.12 37.69 4.07Q37.60 4.02 37.43 3.96L37.43 3.96Q37.27 3.90 37.15 3.83Q37.03 3.77 36.97 3.68Q36.91 3.59 36.91 3.45L36.91 3.45Q36.91 3.24 37.08 3.12Q37.26 3.00 37.54 3.00L37.54 3.00Q37.70 3.00 37.84 3.03Q37.97 3.06 38.09 3.11L38.09 3.11L37.99 3.34Q37.88 3.29 37.77 3.26Q37.65 3.23 37.53 3.23L37.53 3.23Q37.35 3.23 37.26 3.28Q37.17 3.34 37.17 3.44L37.17 3.44Q37.17 3.51 37.21 3.55Q37.26 3.60 37.35 3.65Q37.45 3.70 37.61 3.76L37.61 3.76Q37.77 3.82 37.89 3.88Q38.00 3.95 38.06 4.04Q38.12 4.13 38.12 4.26ZM38.81 2.32L38.81 3.58Q38.81 3.63 38.81 3.71Q38.80 3.80 38.80 3.86L38.80 3.86L38.81 3.86Q38.83 3.83 38.87 3.78Q38.91 3.74 38.95 3.69Q38.99 3.64 39.01 3.61L39.01 3.61L39.56 3.03L39.88 3.03L39.20 3.76L39.93 4.73L39.60 4.73L39.01 3.94L38.81 4.11L38.81 4.73L38.54 4.73L38.54 2.32L38.81 2.32ZM40.65 4.74L39.96 3.03L40.26 3.03L40.63 4.00Q40.66 4.09 40.69 4.17Q40.72 4.25 40.74 4.32Q40.76 4.39 40.77 4.46L40.77 4.46L40.79 4.46Q40.81 4.38 40.85 4.26Q40.89 4.13 40.93 4.00L40.93 4.00L41.28 3.03L41.58 3.03L40.85 4.97Q40.79 5.13 40.71 5.25Q40.62 5.37 40.51 5.43Q40.39 5.50 40.23 5.50L40.23 5.50Q40.15 5.50 40.09 5.49Q40.04 5.48 40.00 5.47L40.00 5.47L40.00 5.25Q40.03 5.25 40.08 5.26Q40.13 5.27 40.18 5.27L40.18 5.27Q40.28 5.27 40.35 5.23Q40.42 5.19 40.48 5.13Q40.53 5.06 40.56 4.97L40.56 4.97L40.65 4.74Z" fill="rgb(255, 255, 255)" stroke="rgb(255, 255, 255)" stroke-width="0.3175002px" stroke-linejoin="round" stroke-linecap="round"/></g></svg>