<?xml version="1.0" encoding="UTF-8"?>
<svg width="240" height="40" viewBox="0 0 63.49999866666667 10.583333333333332" version="1.1" id="svg1" xml:space="preserve" xmlns="http://www.w3.org/2000/svg"><defs id="defs1"/><g id="layer1"><rect style="fill: rgb(16, 131, 254); fill-opacity: 1; stroke: rgb(16, 131, 254); stroke-width: 0.257991px; stroke-linejoin: round; stroke-dasharray: none; stroke-opacity: 1;" id="rect1" x="0.1289961" y="0.1289961" width="63.242007666666666" height="10.325342033333332" ry="3.0976026099999996"/><path d="m 5.4155436,2.1370388 c 0.485341,0.4138246 1.007381,1.2528887 1.199047,1.7031792 0.191682,-0.4502574 0.713693,-1.2893629 1.199048,-1.7031792 0.350197,-0.2985994 0.917607,-0.5296386 0.917607,0.2055404 0,0.1468253 -0.07412,1.2334081 -0.117592,1.4098106 -0.151106,0.6132971 -0.701736,0.7697217 -1.19153,0.6750463 0.85615,0.1654933 1.073947,0.7136675 0.60359,1.2618413 -0.893301,1.04109 -1.283933,-0.2612131 -1.384073,-0.5949105 -0.01835,-0.061175 -0.02694,-0.089793 -0.02706,-0.065458 -1.27e-4,-0.024336 -0.0087,0.00428 -0.02706,0.065459 -0.100096,0.3336966 -0.490721,1.6360325 -1.384073,0.5949095 -0.470364,-0.5481736 -0.252575,-1.0963809 0.60359,-1.2618411 -0.489808,0.094675 -1.040445,-0.06175 -1.19153,-0.6750463 -0.04347,-0.176419 -0.117591,-1.263002 -0.117591,-1.4098106 0,-0.735179 0.567423,-0.5041398 0.917606,-0.2055404 z" fill="#FFFFFF" id="path1" style="display: inline; fill: rgb(255, 255, 255); fill-opacity: 1; stroke-width: 0.00777847px;" transform="translate(4, 1.037961761262003) translate(-3.307290554046631, -1.9843748211860657) scale(1.5) "/><path d="M17.45 6.62L16.41 6.62L16.41 3.32L17.38 3.32Q17.72 3.32 17.97 3.40Q18.23 3.48 18.37 3.66Q18.52 3.83 18.52 4.13L18.52 4.13Q18.52 4.29 18.46 4.43Q18.40 4.58 18.30 4.69Q18.19 4.79 18.03 4.84L18.03 4.84L18.03 4.86Q18.33 4.92 18.52 5.12Q18.71 5.31 18.71 5.65L18.71 5.65Q18.71 5.98 18.55 6.19Q18.39 6.40 18.10 6.51Q17.82 6.62 17.45 6.62L17.45 6.62ZM16.82 3.65L16.82 4.72L17.31 4.72Q17.74 4.72 17.92 4.58Q18.11 4.43 18.11 4.18L18.11 4.18Q18.11 3.89 17.91 3.77Q17.72 3.65 17.33 3.65L17.33 3.65L16.82 3.65ZM16.82 5.04L16.82 6.29L17.40 6.29Q17.82 6.29 18.06 6.13Q18.30 5.97 18.30 5.64L18.30 5.64Q18.30 5.33 18.06 5.19Q17.83 5.04 17.40 5.04L17.40 5.04L16.82 5.04ZM19.75 6.68L19.75 6.68Q19.60 6.68 19.51 6.61Q19.41 6.55 19.37 6.43Q19.32 6.30 19.32 6.13L19.32 6.13L19.32 3.04L19.74 3.04L19.74 6.16Q19.74 6.25 19.77 6.29Q19.80 6.34 19.85 6.34L19.85 6.34Q19.87 6.34 19.88 6.33Q19.90 6.33 19.93 6.33L19.93 6.33L19.99 6.64Q19.95 6.65 19.89 6.67Q19.84 6.68 19.75 6.68ZM21.32 6.68L21.32 6.68Q20.93 6.68 20.75 6.43Q20.56 6.19 20.56 5.72L20.56 5.72L20.56 4.18L20.98 4.18L20.98 5.67Q20.98 6.01 21.09 6.17Q21.19 6.32 21.44 6.32L21.44 6.32Q21.63 6.32 21.77 6.22Q21.92 6.12 22.10 5.91L22.10 5.91L22.10 4.18L22.51 4.18L22.51 6.62L22.17 6.62L22.13 6.24L22.12 6.24Q21.95 6.43 21.76 6.56Q21.57 6.68 21.32 6.68ZM24.32 6.68L24.32 6.68Q23.99 6.68 23.73 6.52Q23.46 6.37 23.31 6.09Q23.15 5.80 23.15 5.40L23.15 5.40Q23.15 5.10 23.24 4.86Q23.33 4.63 23.49 4.46Q23.64 4.29 23.84 4.20Q24.04 4.11 24.24 4.11L24.24 4.11Q24.56 4.11 24.78 4.25Q24.99 4.39 25.11 4.65Q25.22 4.91 25.22 5.26L25.22 5.26Q25.22 5.33 25.22 5.39Q25.21 5.44 25.20 5.49L25.20 5.49L23.56 5.49Q23.57 5.75 23.68 5.95Q23.78 6.14 23.96 6.24Q24.13 6.35 24.37 6.35L24.37 6.35Q24.55 6.35 24.69 6.30Q24.84 6.25 24.98 6.16L24.98 6.16L25.12 6.43Q24.96 6.53 24.77 6.61Q24.57 6.68 24.32 6.68ZM23.55 5.20L23.55 5.20L24.86 5.20Q24.86 4.83 24.70 4.64Q24.54 4.44 24.25 4.44L24.25 4.44Q24.08 4.44 23.93 4.53Q23.78 4.62 23.68 4.79Q23.58 4.95 23.55 5.20ZM26.46 6.68L26.46 6.68Q26.21 6.68 25.97 6.58Q25.73 6.48 25.55 6.34L25.55 6.34L25.75 6.07Q25.91 6.20 26.09 6.28Q26.26 6.36 26.48 6.36L26.48 6.36Q26.72 6.36 26.84 6.25Q26.96 6.14 26.96 5.98L26.96 5.98Q26.96 5.85 26.87 5.77Q26.79 5.68 26.66 5.62Q26.54 5.56 26.40 5.51L26.40 5.51Q26.23 5.44 26.06 5.36Q25.90 5.28 25.79 5.15Q25.69 5.01 25.69 4.81L25.69 4.81Q25.69 4.61 25.79 4.45Q25.89 4.30 26.08 4.20Q26.27 4.11 26.53 4.11L26.53 4.11Q26.76 4.11 26.95 4.19Q27.15 4.27 27.29 4.39L27.29 4.39L27.09 4.65Q26.96 4.56 26.83 4.49Q26.70 4.43 26.54 4.43L26.54 4.43Q26.30 4.43 26.19 4.54Q26.08 4.64 26.08 4.79L26.08 4.79Q26.08 4.90 26.15 4.98Q26.23 5.05 26.35 5.10Q26.47 5.16 26.61 5.21L26.61 5.21Q26.74 5.26 26.87 5.32Q27.01 5.38 27.11 5.46Q27.22 5.54 27.28 5.66Q27.35 5.78 27.35 5.95L27.35 5.95Q27.35 6.15 27.25 6.32Q27.15 6.48 26.95 6.58Q26.76 6.68 26.46 6.68ZM28.34 6.62L27.93 6.62L27.93 3.04L28.34 3.04L28.34 5.46L28.35 5.46L29.39 4.18L29.85 4.18L29.03 5.16L29.96 6.62L29.51 6.62L28.79 5.44L28.34 5.98L28.34 6.62ZM30.45 7.67L30.45 7.67Q30.37 7.67 30.30 7.66Q30.23 7.64 30.17 7.62L30.17 7.62L30.25 7.29Q30.28 7.31 30.33 7.32Q30.38 7.33 30.44 7.33L30.44 7.33Q30.64 7.33 30.78 7.18Q30.91 7.03 30.99 6.81L30.99 6.81L31.04 6.62L30.06 4.18L30.49 4.18L30.98 5.53Q31.04 5.69 31.10 5.87Q31.16 6.05 31.22 6.22L31.22 6.22L31.25 6.22Q31.30 6.05 31.35 5.87Q31.40 5.70 31.44 5.53L31.44 5.53L31.89 4.18L32.29 4.18L31.37 6.83Q31.28 7.06 31.16 7.26Q31.04 7.45 30.87 7.56Q30.70 7.67 30.45 7.67ZM33.75 4.05L33.71 3.66Q33.83 3.65 33.94 3.65Q34.05 3.64 34.11 3.64L34.11 3.64Q34.22 3.62 34.42 3.60Q34.63 3.58 34.89 3.56Q35.16 3.53 35.46 3.50Q35.77 3.48 36.08 3.45L36.08 3.45Q36.33 3.43 36.55 3.41Q36.77 3.40 36.96 3.39Q37.15 3.37 37.29 3.37L37.29 3.37L37.29 3.73Q37.17 3.73 37.01 3.73Q36.84 3.74 36.69 3.75Q36.53 3.77 36.41 3.80L36.41 3.80Q36.17 3.88 35.98 4.03Q35.79 4.19 35.66 4.39Q35.52 4.59 35.45 4.81Q35.38 5.03 35.38 5.23L35.38 5.23Q35.38 5.49 35.47 5.69Q35.56 5.88 35.72 6.02Q35.87 6.15 36.07 6.24Q36.27 6.32 36.49 6.36Q36.71 6.41 36.93 6.41L36.93 6.41L36.80 6.79Q36.55 6.78 36.30 6.72Q36.05 6.65 35.82 6.54Q35.59 6.43 35.41 6.25Q35.23 6.07 35.13 5.84Q35.02 5.61 35.02 5.30L35.02 5.30Q35.02 4.95 35.15 4.65Q35.27 4.36 35.46 4.13Q35.66 3.91 35.86 3.78L35.86 3.78Q35.72 3.80 35.51 3.82Q35.29 3.85 35.05 3.87Q34.81 3.90 34.56 3.93Q34.32 3.96 34.10 3.99Q33.89 4.02 33.75 4.05L33.75 4.05ZM36.42 4.38L36.65 4.28Q36.70 4.36 36.77 4.47Q36.84 4.58 36.90 4.69Q36.97 4.81 37.02 4.91L37.02 4.91L36.79 5.02Q36.71 4.85 36.62 4.69Q36.52 4.52 36.42 4.38L36.42 4.38ZM36.92 4.20L37.14 4.09Q37.19 4.17 37.26 4.27Q37.34 4.38 37.40 4.50Q37.47 4.61 37.53 4.72L37.53 4.72L37.29 4.83Q37.21 4.66 37.12 4.50Q37.02 4.34 36.92 4.20L36.92 4.20ZM38.51 3.54L38.51 3.54Q38.64 3.54 38.74 3.54Q38.83 3.55 38.91 3.55L38.91 3.55Q38.96 3.55 39.11 3.55Q39.25 3.55 39.46 3.55Q39.66 3.55 39.90 3.55Q40.13 3.55 40.36 3.55Q40.59 3.55 40.80 3.55Q41.00 3.55 41.14 3.55Q41.28 3.55 41.33 3.55L41.33 3.55Q41.40 3.55 41.51 3.54Q41.62 3.54 41.72 3.54L41.72 3.54Q41.72 3.62 41.72 3.71Q41.71 3.80 41.71 3.89L41.71 3.89Q41.71 3.93 41.71 4.07Q41.71 4.20 41.71 4.39Q41.71 4.58 41.71 4.79Q41.71 5.01 41.71 5.23Q41.71 5.44 41.71 5.63Q41.71 5.81 41.71 5.94Q41.71 6.07 41.71 6.11L41.71 6.11Q41.71 6.16 41.71 6.24Q41.71 6.33 41.72 6.41Q41.72 6.50 41.72 6.56Q41.72 6.63 41.72 6.65L41.72 6.65L41.34 6.65Q41.34 6.62 41.34 6.54Q41.34 6.46 41.34 6.35Q41.34 6.25 41.34 6.15L41.34 6.15Q41.34 6.12 41.34 5.98Q41.34 5.84 41.34 5.64Q41.34 5.43 41.34 5.19Q41.34 4.96 41.34 4.73Q41.34 4.50 41.34 4.31Q41.34 4.13 41.34 4.01Q41.34 3.90 41.34 3.90L41.34 3.90L38.88 3.90Q38.88 3.90 38.88 4.01Q38.88 4.12 38.88 4.31Q38.88 4.50 38.88 4.73Q38.88 4.95 38.88 5.19Q38.88 5.42 38.88 5.63Q38.88 5.83 38.88 5.97Q38.88 6.11 38.88 6.15L38.88 6.15Q38.88 6.21 38.88 6.29Q38.88 6.36 38.89 6.44Q38.89 6.51 38.89 6.57Q38.89 6.63 38.89 6.65L38.89 6.65L38.51 6.65Q38.51 6.63 38.51 6.56Q38.51 6.50 38.51 6.41Q38.51 6.33 38.51 6.24Q38.51 6.16 38.51 6.10L38.51 6.10Q38.51 6.07 38.51 5.93Q38.51 5.80 38.51 5.62Q38.51 5.43 38.51 5.21Q38.51 4.99 38.51 4.77Q38.51 4.55 38.51 4.37Q38.51 4.18 38.51 4.05Q38.51 3.92 38.51 3.89L38.51 3.89Q38.51 3.81 38.51 3.71Q38.51 3.62 38.51 3.54ZM38.71 6.04L41.49 6.04L41.49 6.39L38.71 6.39L38.71 6.04ZM45.56 3.12L45.80 3.02Q45.85 3.10 45.92 3.21Q45.99 3.32 46.05 3.43Q46.11 3.54 46.16 3.64L46.16 3.64L45.92 3.74Q45.85 3.61 45.75 3.43Q45.65 3.25 45.56 3.12L45.56 3.12ZM46.05 2.94L46.29 2.84Q46.35 2.92 46.42 3.03Q46.49 3.14 46.56 3.26Q46.62 3.37 46.67 3.45L46.67 3.45L46.43 3.56Q46.35 3.41 46.25 3.24Q46.15 3.07 46.05 2.94L46.05 2.94ZM45.80 3.73L46.09 3.91Q46.07 3.96 46.04 4.03Q46.01 4.10 45.99 4.15L45.99 4.15Q45.93 4.38 45.82 4.65Q45.71 4.91 45.55 5.19Q45.39 5.46 45.19 5.71L45.19 5.71Q44.89 6.08 44.46 6.38Q44.03 6.69 43.40 6.93L43.40 6.93L43.07 6.63Q43.49 6.51 43.82 6.34Q44.14 6.16 44.41 5.95Q44.67 5.74 44.87 5.50L44.87 5.50Q45.05 5.30 45.19 5.05Q45.34 4.80 45.44 4.55Q45.55 4.30 45.59 4.10L45.59 4.10L43.92 4.10L44.07 3.77Q44.12 3.77 44.27 3.77Q44.42 3.77 44.61 3.77Q44.80 3.77 44.99 3.77Q45.18 3.77 45.32 3.77Q45.46 3.77 45.50 3.77L45.50 3.77Q45.59 3.77 45.67 3.77Q45.74 3.76 45.80 3.73L45.80 3.73ZM44.17 3.10L44.58 3.23Q44.53 3.32 44.48 3.42Q44.42 3.52 44.39 3.59L44.39 3.59Q44.26 3.83 44.05 4.12Q43.85 4.40 43.57 4.69Q43.29 4.97 42.93 5.21L42.93 5.21L42.61 4.98Q42.91 4.80 43.14 4.60Q43.37 4.40 43.54 4.19Q43.72 3.99 43.84 3.80Q43.96 3.60 44.03 3.46L44.03 3.46Q44.07 3.40 44.11 3.29Q44.15 3.19 44.17 3.10L44.17 3.10ZM47.42 5.35L47.24 4.99Q47.82 4.84 48.33 4.61Q48.83 4.39 49.21 4.15L49.21 4.15Q49.44 4.00 49.66 3.83Q49.89 3.66 50.08 3.47Q50.28 3.28 50.43 3.10L50.43 3.10L50.74 3.37Q50.55 3.58 50.33 3.77Q50.11 3.96 49.86 4.14Q49.62 4.32 49.35 4.49L49.35 4.49Q49.10 4.63 48.79 4.79Q48.48 4.95 48.13 5.09Q47.78 5.23 47.42 5.35L47.42 5.35ZM49.13 6.28L49.13 4.34L49.52 4.22L49.52 6.28Q49.52 6.36 49.52 6.46Q49.53 6.55 49.53 6.63Q49.54 6.71 49.55 6.76L49.55 6.76L49.11 6.76Q49.11 6.71 49.12 6.63Q49.13 6.55 49.13 6.46Q49.13 6.36 49.13 6.28L49.13 6.28ZM52.12 3.59L52.37 3.32Q52.50 3.40 52.65 3.52Q52.81 3.64 52.97 3.77Q53.14 3.91 53.28 4.03Q53.43 4.16 53.52 4.25L53.52 4.25L53.24 4.54Q53.15 4.45 53.02 4.32Q52.88 4.20 52.72 4.06Q52.56 3.92 52.40 3.80Q52.24 3.68 52.12 3.59L52.12 3.59ZM52.23 6.70L51.99 6.34Q52.38 6.28 52.71 6.17Q53.04 6.07 53.31 5.94Q53.58 5.81 53.79 5.68L53.79 5.68Q54.13 5.46 54.43 5.18Q54.72 4.90 54.94 4.60Q55.16 4.30 55.29 4.02L55.29 4.02L55.51 4.40Q55.35 4.68 55.13 4.97Q54.90 5.26 54.62 5.53Q54.34 5.79 53.99 6.01L53.99 6.01Q53.77 6.15 53.50 6.28Q53.23 6.42 52.92 6.53Q52.60 6.64 52.23 6.70L52.23 6.70Z" fill="rgb(255, 255, 255)" stroke="rgb(255, 255, 255)" stroke-width="0.3175002px" stroke-linejoin="round" stroke-linecap="round"/></g></svg>